name ./resultDataOpenSim/trcMotMarkerGrf/sub09/grf-04-04.mot
datacolumns 19
datarows 15
range 0.99200000 1.04800000
endheader

                time	     ground_force_vx	     ground_force_vy	     ground_force_vz	     ground_force_px	     ground_force_py	     ground_force_pz	   l_ground_force_vx	   l_ground_force_vy	   l_ground_force_vz	   l_ground_force_px	   l_ground_force_py	   l_ground_force_pz	     ground_torque_x	     ground_torque_y	     ground_torque_z	   l_ground_torque_x	   l_ground_torque_y	   l_ground_torque_z	
          0.99200000	          0.00000000	          0.00000000	          0.00000000	          0.00000000	          0.00000000	          0.00000000	         17.19859696	        381.68757805	         17.45175204	          0.12015039	         -0.07500000	          0.01627514	          0.00000000	          0.00000000	          0.00000000	          0.00000000	         -3.11222617	          0.00000000	
          0.99600000	          0.00000000	          0.00000000	          0.00000000	          0.00000000	          0.00000000	          0.00000000	         22.14975917	        388.14069663	         16.49091993	          0.12043519	         -0.07500000	          0.01667881	          0.00000000	          0.00000000	          0.00000000	          0.00000000	         -3.45899842	          0.00000000	
          1.00000000	          0.00000000	          0.00000000	          0.00000000	          0.00000000	          0.00000000	          0.00000000	         27.11733452	        396.04250365	         15.30426536	          0.12069438	         -0.07500000	          0.01707783	          0.00000000	          0.00000000	          0.00000000	          0.00000000	         -3.81018184	          0.00000000	
          1.00400000	          0.00000000	          0.00000000	          0.00000000	          0.00000000	          0.00000000	          0.00000000	         32.00631888	        405.48272408	         13.91057050	          0.12104551	         -0.07500000	          0.01748828	          0.00000000	          0.00000000	          0.00000000	          0.00000000	         -4.16036888	          0.00000000	
          1.00800000	          0.00000000	          0.00000000	          0.00000000	          0.00000000	          0.00000000	          0.00000000	         36.72434604	        416.62112362	         12.34809472	          0.12158420	         -0.07500000	          0.01794809	          0.00000000	          0.00000000	          0.00000000	          0.00000000	         -4.50505821	          0.00000000	
          1.01200000	          0.00000000	          0.00000000	          0.00000000	          0.00000000	          0.00000000	          0.00000000	         41.17885991	        429.63739327	         10.68685092	          0.12230621	         -0.07500000	          0.01847101	          0.00000000	          0.00000000	          0.00000000	          0.00000000	         -4.84014499	          0.00000000	
          1.01600000	          0.00000000	          0.00000000	          0.00000000	          0.00000000	          0.00000000	          0.00000000	         45.28620739	        444.63450426	          9.02550807	          0.12310221	         -0.07500000	          0.01901884	          0.00000000	          0.00000000	          0.00000000	          0.00000000	         -5.16136717	          0.00000000	
          1.02000000	          0.00000000	          0.00000000	          0.00000000	          0.00000000	          0.00000000	          0.00000000	         48.98741085	        461.55387838	          7.46856061	          0.12384896	         -0.07500000	          0.01953558	          0.00000000	          0.00000000	          0.00000000	          0.00000000	         -5.46403793	          0.00000000	
          1.02400000	          0.00000000	          0.00000000	          0.00000000	          0.00000000	          0.00000000	          0.00000000	         52.27133389	        480.13676751	          6.09911741	          0.12448973	         -0.07500000	          0.01998775	          0.00000000	          0.00000000	          0.00000000	          0.00000000	         -5.74312707	          0.00000000	
          1.02800000	          0.00000000	          0.00000000	          0.00000000	          0.00000000	          0.00000000	          0.00000000	         55.18937271	        499.97593705	          4.96782837	          0.12500131	         -0.07500000	          0.02036702	          0.00000000	          0.00000000	          0.00000000	          0.00000000	         -5.99353374	          0.00000000	
          1.03200000	          0.00000000	          0.00000000	          0.00000000	          0.00000000	          0.00000000	          0.00000000	         57.85409770	        520.63496962	          4.10747505	          0.12536735	         -0.07500000	          0.02066989	          0.00000000	          0.00000000	          0.00000000	          0.00000000	         -6.21042570	          0.00000000	
          1.03600000	          0.00000000	          0.00000000	          0.00000000	          0.00000000	          0.00000000	          0.00000000	         60.42866120	        541.76732770	          3.55382633	          0.12561825	         -0.07500000	          0.02092167	          0.00000000	          0.00000000	          0.00000000	          0.00000000	         -6.38965121	          0.00000000	
          1.04000000	          0.00000000	          0.00000000	          0.00000000	          0.00000000	          0.00000000	          0.00000000	         63.10054261	        563.16431188	          3.34562463	          0.12579641	         -0.07500000	          0.02114395	          0.00000000	          0.00000000	          0.00000000	          0.00000000	         -6.52823254	          0.00000000	
          1.04400000	          0.00000000	          0.00000000	          0.00000000	          0.00000000	          0.00000000	          0.00000000	         66.04242157	        584.69220706	          3.51250069	          0.12592951	         -0.07500000	          0.02133357	          0.00000000	          0.00000000	          0.00000000	          0.00000000	         -6.62484166	          0.00000000	
          1.04800000	          0.00000000	          0.00000000	          0.00000000	          0.00000000	          0.00000000	          0.00000000	         69.38749788	        606.18379788	          4.06809998	          0.12603815	         -0.07500000	          0.02148491	          0.00000000	          0.00000000	          0.00000000	          0.00000000	         -6.68007991	          0.00000000	
